ffmpeg version 4.2.7-0ubuntu0.1 Copyright (c) 2000-2022 the FFmpeg developers
  built with gcc 9 (Ubuntu 9.4.0-1ubuntu1~20.04.1)
  configuration: --prefix=/usr --extra-version=0ubuntu0.1 --toolchain=hardened --libdir=/usr/lib/x86_64-linux-gnu --incdir=/usr/include/x86_64-linux-gnu --arch=amd64 --enable-gpl --disable-stripping --enable-avresample --disable-filter=resample --enable-avisynth --enable-gnutls --enable-ladspa --enable-libaom --enable-libass --enable-libbluray --enable-libbs2b --enable-libcaca --enable-libcdio --enable-libcodec2 --enable-libflite --enable-libfontconfig --enable-libfreetype --enable-libfribidi --enable-libgme --enable-libgsm --enable-libjack --enable-libmp3lame --enable-libmysofa --enable-libopenjpeg --enable-libopenmpt --enable-libopus --enable-libpulse --enable-librsvg --enable-librubberband --enable-libshine --enable-libsnappy --enable-libsoxr --enable-libspeex --enable-libssh --enable-libtheora --enable-libtwolame --enable-libvidstab --enable-libvorbis --enable-libvpx --enable-libwavpack --enable-libwebp --enable-libx265 --enable-libxml2 --enable-libxvid --enable-libzmq --enable-libzvbi --enable-lv2 --enable-omx --enable-openal --enable-opencl --enable-opengl --enable-sdl2 --enable-libdc1394 --enable-libdrm --enable-libiec61883 --enable-nvenc --enable-chromaprint --enable-frei0r --enable-libx264 --enable-shared
  libavutil      56. 31.100 / 56. 31.100
  libavcodec     58. 54.100 / 58. 54.100
  libavformat    58. 29.100 / 58. 29.100
  libavdevice    58.  8.100 / 58.  8.100
  libavfilter     7. 57.100 /  7. 57.100
  libavresample   4.  0.  0 /  4.  0.  0
  libswscale      5.  5.100 /  5.  5.100
  libswresample   3.  5.100 /  3.  5.100
  libpostproc    55.  5.100 / 55.  5.100
Routing option strict to both codec and muxer layer
[h264 @ 0x55e1efdc08c0] Reinit context to 464x848, pix_fmt: yuv420p
Input #0, mov,mp4,m4a,3gp,3g2,mj2, from '/var/www/html/project/media/video/original/IMG_5636.MP4':
  Metadata:
    major_brand     : mp42
    minor_version   : 1
    compatible_brands: isommp41mp42
    creation_time   : 2025-02-22T18:14:46.000000Z
  Duration: 00:00:11.30, start: 0.000000, bitrate: 1663 kb/s
    Stream #0:0(und): Video: h264 (High), 1 reference frame (avc1 / 0x31637661), yuv420p(tv, bt709, left), 464x848, 1593 kb/s, SAR 1:1 DAR 29:53, 30 fps, 30 tbr, 600 tbn, 1200 tbc (default)
    Metadata:
      creation_time   : 2025-02-22T18:14:46.000000Z
      handler_name    : Core Media Video
    Stream #0:1(und): Audio: aac (LC) (mp4a / 0x6134706D), 44100 Hz, stereo, fltp, 64 kb/s (default)
    Metadata:
      creation_time   : 2025-02-22T18:14:46.000000Z
      handler_name    : Core Media Audio
Input #1, png_pipe, from '/var/www/html/project/static/images/templates/logo_vertical.png':
  Duration: N/A, bitrate: N/A
    Stream #1:0: Video: png, 1 reference frame, rgba(pc), 1920x1080 [SAR 2835:2835 DAR 16:9], 25 tbr, 25 tbn, 25 tbc
[Parsed_scale_1 @ 0x55e1efdd8000] w:1280 h:720 flags:'bilinear' interl:0
[Parsed_scale_4 @ 0x55e1efdff740] w:-1 h:720 flags:'bilinear' interl:0
[Parsed_scale_6 @ 0x55e1efe22d00] w:1280 h:720 flags:'bilinear' interl:0
Stream mapping:
  Stream #0:0 (h264) -> split (graph 0)
  Stream #1:0 (png) -> scale (graph 0)
  overlay (graph 0) -> Stream #0:0 (libx264)
  Stream #0:1 -> #0:1 (aac (native) -> aac (native))
Press [q] to stop, [?] for help
[graph_1_in_0_1 @ 0x55e1efdd9800] tb:1/44100 samplefmt:fltp samplerate:44100 chlayout:0x3
[h264 @ 0x55e1efe13140] Reinit context to 464x848, pix_fmt: yuv420p
[Parsed_scale_1 @ 0x55e1f04802c0] w:1280 h:720 flags:'bilinear' interl:0
[Parsed_scale_4 @ 0x55e1f04ae200] w:-1 h:720 flags:'bilinear' interl:0
[Parsed_scale_6 @ 0x55e1f04af040] w:1280 h:720 flags:'bilinear' interl:0
[graph 0 input from stream 0:0 @ 0x55e1f04b1140] w:464 h:848 pixfmt:yuv420p tb:1/600 fr:30/1 sar:1/1 sws_param:flags=2
[graph 0 input from stream 1:0 @ 0x55e1f04b2180] w:1920 h:1080 pixfmt:rgba tb:1/25 fr:25/1 sar:2835/2835 sws_param:flags=2
[Parsed_scale_1 @ 0x55e1f04802c0] w:464 h:848 fmt:yuv420p sar:1/1 -> w:1280 h:720 fmt:yuv420p sar:261/848 flags:0x2
[Parsed_boxblur_2 @ 0x55e1efe1da40] luma_radius:36 luma_power:1 chroma_radius:18 chroma_power:1 alpha_radius:36 alpha_power:1 w:1280 chroma_w:640 h:720 chroma_h:360
[Parsed_setsar_3 @ 0x55e1f04ad8c0] w:1280 h:720 sar:261/848 dar:29/53 -> sar:1/1 dar:16/9
[Parsed_scale_4 @ 0x55e1f04ae200] w:464 h:848 fmt:yuv420p sar:1/1 -> w:394 h:720 fmt:yuva420p sar:10440/10441 flags:0x2
[Parsed_setsar_5 @ 0x55e1f04ae8c0] w:394 h:720 sar:10440/10441 dar:29/53 -> sar:1/1 dar:197/360
[Parsed_overlay_8 @ 0x55e1f04afc40] main w:1280 h:720 fmt:yuv420p overlay w:394 h:720 fmt:yuva420p
[Parsed_overlay_8 @ 0x55e1f04afc40] [framesync @ 0x55e1f04afd68] Selected 1/600 time base
[Parsed_overlay_8 @ 0x55e1f04afc40] [framesync @ 0x55e1f04afd68] Sync level 2
[Parsed_scale_6 @ 0x55e1f04af040] w:1920 h:1080 fmt:rgba sar:2835/2835 -> w:1280 h:720 fmt:yuva420p sar:1/1 flags:0x2
[Parsed_setsar_7 @ 0x55e1f04af4c0] w:1280 h:720 sar:1/1 dar:16/9 -> sar:1/1 dar:16/9
[Parsed_overlay_9 @ 0x55e1f04b04c0] main w:1280 h:720 fmt:yuv420p overlay w:1280 h:720 fmt:yuva420p
[Parsed_overlay_9 @ 0x55e1f04b04c0] [framesync @ 0x55e1f04b0628] Selected 1/600 time base
[Parsed_overlay_9 @ 0x55e1f04b04c0] [framesync @ 0x55e1f04b0628] Sync level 2
[libx264 @ 0x55e1efe0eb40] using SAR=1/1
[libx264 @ 0x55e1efe0eb40] using cpu capabilities: MMX2 SSE2Fast SSSE3 SSE4.2 AVX FMA3 BMI2 AVX2
[libx264 @ 0x55e1efe0eb40] profile High, level 3.1
[libx264 @ 0x55e1efe0eb40] 264 - core 155 r2917 0a84d98 - H.264/MPEG-4 AVC codec - Copyleft 2003-2018 - http://www.videolan.org/x264.html - options: cabac=1 ref=1 deblock=1:0:0 analyse=0x3:0x113 me=hex subme=2 psy=1 psy_rd=1.00:0.00 mixed_ref=0 me_range=16 chroma_me=1 trellis=0 8x8dct=1 cqm=0 deadzone=21,11 fast_pskip=1 chroma_qp_offset=0 threads=22 lookahead_threads=5 sliced_threads=0 nr=0 decimate=1 interlaced=0 bluray_compat=0 constrained_intra=0 bframes=3 b_pyramid=2 b_adapt=1 b_bias=0 direct=1 weightb=1 open_gop=0 weightp=1 keyint=250 keyint_min=25 scenecut=40 intra_refresh=0 rc_lookahead=10 rc=crf mbtree=1 crf=18.0 qcomp=0.60 qpmin=0 qpmax=69 qpstep=4 ip_ratio=1.40 aq=1:1.00
Output #0, mp4, to '/var/www/html/project/media/video/watermarks/IMG_5636.mp4':
  Metadata:
    major_brand     : mp42
    minor_version   : 1
    compatible_brands: isommp41mp42
    encoder         : Lavf58.29.100
    Stream #0:0: Video: h264 (libx264), 1 reference frame (avc1 / 0x31637661), yuv420p, 1280x720 [SAR 1:1 DAR 16:9], q=-1--1, 30 fps, 15360 tbn, 30 tbc (default)
    Metadata:
      encoder         : Lavc58.54.100 libx264
    Side data:
      cpb: bitrate max/min/avg: 0/0/0 buffer size: 0 vbv_delay: -1
    Stream #0:1(und): Audio: aac (LC) (mp4a / 0x6134706D), 44100 Hz, stereo, fltp, delay 1024, 128 kb/s (default)
    Metadata:
      creation_time   : 2025-02-22T18:14:46.000000Z
      handler_name    : Core Media Audio
      encoder         : Lavc58.54.100 aac
[Parsed_overlay_8 @ 0x55e1f04afc40] [framesync @ 0x55e1f04afd68] Sync level 1
[Parsed_overlay_8 @ 0x55e1f04afc40] [framesync @ 0x55e1f04afd68] Sync level 0
[Parsed_overlay_9 @ 0x55e1f04b04c0] [framesync @ 0x55e1f04b0628] Sync level 0
No more output streams to write to, finishing.
frame=  339 fps= 34 q=-1.0 Lsize=    3002kB time=00:00:11.23 bitrate=2188.3kbits/s speed=1.13x    
[AVIOContext @ 0x55e1efdbed00] Statistics: 0 seeks, 20 writeouts
video:2813kB audio:176kB subtitle:0kB other streams:0kB global headers:0kB muxing overhead: 0.444800%
Input file #0 (/var/www/html/project/media/video/original/IMG_5636.MP4):
  Input stream #0:0 (video): 339 packets read (2251249 bytes); 339 frames decoded; 
  Input stream #0:1 (audio): 486 packets read (90426 bytes); 484 frames decoded (495552 samples); 
  Total: 825 packets (2341675 bytes) demuxed
Input file #1 (/var/www/html/project/static/images/templates/logo_vertical.png):
  Input stream #1:0 (video): 1 packets read (93903 bytes); 1 frames decoded; 
  Total: 1 packets (93903 bytes) demuxed
Output file #0 (/var/www/html/project/media/video/watermarks/IMG_5636.mp4):
  Output stream #0:0 (video): 339 frames encoded; 339 packets muxed (2880255 bytes); 
  Output stream #0:1 (audio): 484 frames encoded (495552 samples); 485 packets muxed (180219 bytes); 
  Total: 824 packets (3060474 bytes) muxed
[AVIOContext @ 0x55e1efe0e140] Statistics: 2 seeks, 15 writeouts
[libx264 @ 0x55e1efe0eb40] frame I:2     Avg QP:14.68  size: 42364
[libx264 @ 0x55e1efe0eb40] frame P:89    Avg QP:16.16  size: 15325
[libx264 @ 0x55e1efe0eb40] frame B:248   Avg QP:17.58  size:  5770
[libx264 @ 0x55e1efe0eb40] consecutive B-frames:  0.9%  3.5%  3.5% 92.0%
[libx264 @ 0x55e1efe0eb40] mb I  I16..4: 41.8% 36.5% 21.8%
[libx264 @ 0x55e1efe0eb40] mb P  I16..4: 24.6% 14.2%  1.3%  P16..4: 23.3% 11.6%  4.7%  0.0%  0.0%    skip:20.3%
[libx264 @ 0x55e1efe0eb40] mb B  I16..4:  5.9%  2.5%  0.1%  B16..8: 22.9%  8.5%  0.6%  direct: 8.5%  skip:51.0%  L0:42.1% L1:50.1% BI: 7.8%
[libx264 @ 0x55e1efe0eb40] 8x8 transform intra:33.3% inter:20.8%
[libx264 @ 0x55e1efe0eb40] coded y,uvDC,uvAC intra: 16.8% 34.9% 6.8% inter: 5.8% 18.6% 0.2%
[libx264 @ 0x55e1efe0eb40] i16 v,h,dc,p: 24% 53% 10% 14%
[libx264 @ 0x55e1efe0eb40] i8 v,h,dc,ddl,ddr,vr,hd,vl,hu: 11% 47% 24%  2%  4%  3%  7%  1%  3%
[libx264 @ 0x55e1efe0eb40] i4 v,h,dc,ddl,ddr,vr,hd,vl,hu: 19% 31% 21%  3%  7%  4%  8%  2%  4%
[libx264 @ 0x55e1efe0eb40] i8c dc,h,v,p: 50% 33% 10%  7%
[libx264 @ 0x55e1efe0eb40] Weighted P-Frames: Y:1.1% UV:0.0%
[libx264 @ 0x55e1efe0eb40] kb/s:2038.63
[aac @ 0x55e1efdf6400] Qavg: 160.805
[AVIOContext @ 0x55e1efdc7c80] Statistics: 20641587 bytes read, 622 seeks
[AVIOContext @ 0x55e1efdf7d40] Statistics: 93903 bytes read, 0 seeks
